<?xml version="1.0" encoding="utf-8"?>
<!-- Generator: Adobe Illustrator 27.0.1, SVG Export Plug-In . SVG Version: 6.00 Build 0)  -->
<svg version="1.1" id="Layer_1" xmlns="http://www.w3.org/2000/svg" xmlns:xlink="http://www.w3.org/1999/xlink" x="0px" y="0px"
	 viewBox="0 0 2834.6 2834.6" style="enable-background:new 0 0 2834.6 2834.6;" xml:space="preserve">
<style type="text/css">
	.st0{display:none;}
	.st1{display:inline;}
	.st2{fill:#3063A0;}
</style>
<g class="st0">
	<g id="XMLID_00000003787126882084510350000016721213824876815782_" class="st1">
		<g>
			<path class="st2" d="M2140.1,1022.1c182.5-1.9,332.2-140.7,351.1-318.7c-7.6,218.9-187.5,394-408.2,394
				c-121,0-229.7-52.6-304.5-136.2c26.4-23.1,50.6-48.7,72.1-76.4c9,11.5,18.7,22.5,29,32.8c63.8,63.8,151.5,103.5,248.6,104.5
				c1.5,0,3.1,0,4.6,0h3.5C2137.6,1022.1,2138.9,1022.1,2140.1,1022.1z"/>
			<path class="st2" d="M1850.6,884.8c-21.5,27.7-45.7,53.3-72.1,76.4c-25.6-28.6-47.2-60.8-64-95.8c35.7-52.5,57.7-114.9,61-182.4
				C1779.3,759.1,1806.7,828.7,1850.6,884.8z"/>
			<path class="st2" d="M1714.5,865.5c16.8,35,38.4,67.2,64,95.8c-96.5,84.5-222.9,135.7-361.2,135.7s-264.7-51.2-361.2-135.7
				c25.4-28.4,46.9-60.3,63.6-95c12.6,18.4,26.8,35.6,42.5,51.3c63.8,63.8,151.5,103.5,248.6,104.5c1.5,0,3.1,0,4.6,0h3.5
				c1.2,0,2.5,0,3.7,0C1544.1,1020.9,1651,959.1,1714.5,865.5z"/>
			<path class="st2" d="M1058.3,683.4c3.4,67.7,25.6,130.3,61.5,182.9c-16.7,34.7-38.2,66.6-63.6,95c-26.6-23.3-50.9-49.1-72.5-77
				C1027.2,828.3,1054.5,758.9,1058.3,683.4z"/>
			<path class="st2" d="M1056.1,961.3c-74.8,83.6-183.5,136.2-304.5,136.2c-216.6,0-393.9-168.6-407.6-381.8
				c24.3,172,171.3,304.6,349.6,306.5c1.5,0,3.1,0,4.6,0h3.5c1.3,0,2.5,0,3.7,0c113-1.2,213.5-54.9,278.1-137.9
				C1005.2,912.2,1029.6,938,1056.1,961.3z"/>
		</g>
	</g>
</g>
<g>
	<g id="XMLID_00000155109609164456228280000007993493086801692071_">
		<g>
			<path class="st2" d="M2140.5,1306.3c182.5-1.9,332.2-140.7,351.1-318.7c-7.6,218.9-187.5,394-408.3,394
				c-121,0-229.7-52.6-304.5-136.2c26.4-23.1,50.6-48.7,72.1-76.4c9,11.5,18.7,22.5,29,32.8c63.8,63.8,151.5,103.5,248.6,104.5
				c1.5,0,3.1,0,4.6,0h3.5C2138.1,1306.3,2139.3,1306.3,2140.5,1306.3z"/>
			<path class="st2" d="M1851,1169c-21.5,27.7-45.7,53.4-72.1,76.4c-25.6-28.6-47.2-60.8-64-95.7c35.6-52.4,57.7-114.8,61-182.1
				C1779.8,1043.3,1807.2,1112.9,1851,1169z"/>
			<path class="st2" d="M1714.9,1149.7c16.8,35,38.4,67.2,64,95.7c-96.5,84.5-222.8,135.7-361.2,135.7s-264.7-51.2-361.2-135.7
				c25.4-28.4,46.9-60.3,63.6-95c12.6,18.4,26.8,35.6,42.5,51.3c63.8,63.8,151.5,103.5,248.6,104.5c1.5,0,3.1,0,4.6,0h3.5
				c1.3,0,2.5,0,3.7,0C1544.6,1305,1651.4,1243.3,1714.9,1149.7z"/>
			<path class="st2" d="M1058.7,967.6c3.4,67.7,25.6,130.3,61.5,182.9c-16.7,34.7-38.2,66.6-63.6,95c-26.6-23.3-50.9-49.1-72.6-77
				C1027.6,1112.4,1054.9,1043.1,1058.7,967.6z"/>
			<path class="st2" d="M1056.6,1245.5c-74.8,83.6-183.5,136.1-304.5,136.1c-216.7,0-394-168.8-407.7-382
				c24.2,172.2,171.2,304.9,349.6,306.7c1.5,0,3.1,0,4.6,0h3.5c1.3,0,2.5,0,3.7,0c113-1.2,213.5-54.9,278.1-137.9
				C1005.7,1196.4,1030,1222.2,1056.6,1245.5z"/>
		</g>
	</g>
</g>
<g>
	<g id="XMLID_00000152245315907619293970000013687648746912935072_">
		<g>
			<path class="st2" d="M2141,1855c182.5-1.9,332.2-140.7,351.1-318.7c-7.6,218.9-187.5,394-408.3,394
				c-121,0-229.7-52.6-304.5-136.2c26.4-23.1,50.6-48.7,72.1-76.4c9,11.5,18.7,22.5,29,32.8c63.8,63.8,151.5,103.5,248.6,104.5
				c1.5,0,3.1,0,4.6,0h3.5C2138.5,1855,2139.8,1855,2141,1855z"/>
			<path class="st2" d="M1851.5,1717.7c-21.5,27.7-45.7,53.4-72.1,76.4c-25.6-28.6-47.2-60.8-64-95.7c35.6-52.4,57.7-114.8,61-182.1
				C1780.2,1592.1,1807.6,1661.6,1851.5,1717.7z"/>
			<path class="st2" d="M1715.4,1698.4c16.8,35,38.4,67.2,64,95.7c-96.5,84.5-222.8,135.7-361.2,135.7s-264.7-51.2-361.2-135.7
				c25.4-28.4,46.9-60.3,63.6-95c12.6,18.4,26.8,35.6,42.5,51.3c63.8,63.8,151.5,103.5,248.6,104.5c1.5,0,3.1,0,4.6,0h3.5
				c1.3,0,2.5,0,3.7,0C1545,1853.8,1651.8,1792,1715.4,1698.4z"/>
			<path class="st2" d="M1059.1,1516.3c3.4,67.7,25.6,130.3,61.5,182.9c-16.7,34.7-38.2,66.6-63.6,95c-26.6-23.3-50.9-49.1-72.6-77
				C1028.1,1661.1,1055.3,1591.8,1059.1,1516.3z"/>
			<path class="st2" d="M1057,1794.2c-74.8,83.6-183.5,136.1-304.5,136.1c-216.7,0-394-168.8-407.7-382
				c24.2,172.2,171.2,304.9,349.6,306.7c1.5,0,3.1,0,4.6,0h3.5c1.3,0,2.5,0,3.7,0c113-1.2,213.5-54.9,278.1-137.9
				C1006.1,1745.1,1030.5,1770.9,1057,1794.2z"/>
		</g>
	</g>
</g>
</svg>
